<?xml version="1.0" encoding="UTF-8"?>
<svg width="32px" height="32px" viewBox="0 0 32 32" version="1.1" xmlns="http://www.w3.org/2000/svg" xmlns:xlink="http://www.w3.org/1999/xlink">
    <!-- Generator: Sketch 50.2 (55047) - http://www.bohemiancoding.com/sketch -->
    <title>FilterAir</title>
    <desc>Created with Sketch.</desc>
    <defs></defs>
    <g id="FilterAir" stroke="none" stroke-width="1" fill="none" fill-rule="evenodd">
        <circle id="Oval" fill="#373C8C" cx="16" cy="16" r="16"></circle>
        <g id="PlaneWhite" transform="translate(5.000000, 9.000000)" fill="#FFFFFF">
            <g id="Plane">
                <path d="M0,6.18578163 L2.66770299,11.0115363 L0.352406125,11.9555237 L1.33385149,13 L6.57000656,13 L22.3525629,6.18578163 C22.6719665,6.08681521 22.9760701,5.80958237 23.2648737,5.3540831 C23.5536773,4.89858382 23.7747688,4.55575401 23.9281483,4.32559365 C24.1016328,3.8541075 23.9609612,3.54921481 23.5061334,3.41091559 C23.0513057,3.27261636 22.5850978,3.20346675 22.1075098,3.20346675 C21.8476624,3.04080657 21.3492107,3.10995618 20.6121546,3.41091559 C19.8750985,3.71187499 17.9372442,4.51883192 14.7985916,5.83178637 L5.50383259,0 L4.36240091,0.575908412 L10.6783987,7.5043188 L5.50383259,9.75599508 L1.33385149,5.83178637 L0,6.18578163 Z" id="Path-6"></path>
                <polygon id="Path-7" points="17.6842105 10.6363636 15.1578947 11.7206105 16.2458736 13 17.6842105 12.7264893"></polygon>
            </g>
        </g>
    </g>
</svg>