<svg xmlns="http://www.w3.org/2000/svg" xmlns:xlink="http://www.w3.org/1999/xlink" preserveAspectRatio="xMidYMid" width="17" height="17" viewBox="0 0 17 17">
  <defs>
    <style>
      .cls-1 {
        stroke: #373c8c;
        stroke-linecap: round;
        stroke-linejoin: round;
        stroke-miterlimit: 10px;
        stroke-width: 1px;
        fill: none;
      }

      .cls-1, .cls-2 {
        fill-rule: evenodd;
      }

      .cls-2 {
        fill: #373c8c;
      }
    </style>
  </defs>
  <g>
    <path d="M0.499,8.500 C0.499,4.082 4.081,0.500 8.500,0.500 C12.918,0.500 16.500,4.082 16.500,8.500 C16.500,12.918 12.918,16.499 8.500,16.499 C4.081,16.499 0.499,12.918 0.499,8.500 Z" class="cls-1"/>
    <path d="M9.409,7.599 L8.770,8.232 C8.485,8.549 8.342,9.004 8.342,9.597 L7.258,9.597 C7.266,9.132 7.318,8.765 7.416,8.496 C7.514,8.226 7.713,7.927 8.014,7.599 L8.782,6.808 C9.109,6.437 9.274,6.039 9.274,5.613 C9.274,5.203 9.166,4.882 8.951,4.649 C8.737,4.417 8.424,4.301 8.014,4.301 C7.616,4.301 7.296,4.406 7.054,4.617 C6.811,4.828 6.690,5.111 6.690,5.466 L5.606,5.466 C5.614,4.834 5.839,4.323 6.283,3.934 C6.726,3.546 7.304,3.351 8.014,3.351 C8.753,3.351 9.328,3.550 9.740,3.946 C10.152,4.342 10.358,4.887 10.358,5.578 C10.358,6.262 10.041,6.935 9.409,7.599 ZM7.850,10.834 C8.061,10.834 8.221,10.893 8.331,11.012 C8.439,11.132 8.494,11.279 8.494,11.455 C8.494,11.631 8.439,11.776 8.331,11.892 C8.221,12.006 8.061,12.064 7.850,12.064 C7.639,12.064 7.480,12.006 7.373,11.892 C7.265,11.776 7.211,11.631 7.211,11.455 C7.211,11.279 7.265,11.132 7.373,11.012 C7.480,10.893 7.639,10.834 7.850,10.834 Z" class="cls-2"/>
  </g>
</svg>
