<?xml version="1.0" encoding="UTF-8"?>
<svg width="49px" height="27px" viewBox="0 0 49 27" version="1.1" xmlns="http://www.w3.org/2000/svg" xmlns:xlink="http://www.w3.org/1999/xlink">
    <!-- Generator: Sketch 50.2 (55047) - http://www.bohemiancoding.com/sketch -->
    <title>PlaneWhite</title>
    <desc>Created with Sketch.</desc>
    <defs></defs>
    <g id="PlaneWhite" stroke="none" stroke-width="1" fill="none" fill-rule="evenodd">
        <path d="M0,12.3755127 L5.35541154,22.0301032 L0.707455005,23.9186806 L2.67770577,26.0083001 L13.1892827,26.0083001 L44.8727515,12.3755127 C45.513954,12.1775167 46.1244417,11.622874 46.7042147,10.7115846 C47.2839876,9.80029524 47.7278287,9.11441672 48.0357379,8.65394906 C48.3840078,7.71067572 48.1016097,7.10069567 47.1885434,6.82400893 C46.2754771,6.54732219 45.3395652,6.40897882 44.3808076,6.40897882 C43.8591642,6.08355459 42.8585228,6.22189796 41.3788833,6.82400893 C39.8992438,7.4261199 36.0090028,9.04054897 29.7081603,11.6672962 L11.0489394,0 L8.7575162,1.15218452 L21.4368766,15.0134289 L11.0489394,19.518219 L2.67770577,11.6672962 L0,12.3755127 Z" id="Path-6" fill="#FFFFFF"></path>
        <polygon id="Path-7" fill="#FFFFFF" points="35.0731471 21 29 23.6550505 31.6154513 26.7879567 35.0731471 26.1181971"></polygon>
    </g>
</svg>