<?xml version="1.0" encoding="UTF-8"?>
<svg width="28px" height="28px" viewBox="0 0 28 28" version="1.1" xmlns="http://www.w3.org/2000/svg" xmlns:xlink="http://www.w3.org/1999/xlink">
    <!-- Generator: Sketch 50.2 (55047) - http://www.bohemiancoding.com/sketch -->
    <title>WarningRed</title>
    <desc>Created with Sketch.</desc>
    <defs></defs>
    <g id="WarningRed" stroke="none" stroke-width="1" fill="none" fill-rule="evenodd">
       <circle id="Oval" fill="#ffffff" cx="14" cy="14" r="14"></circle>
        <g id="Warning" transform="translate(5.500000, 5.500000)">
            <g id="Group">
                <path d="M7.91403274,6.2500586e-05 C9.19335722,-0.0145899042 10.4596748,2.55193094 10.4596748,2.55193094 L15.4114476,10.9975824 C15.4114476,10.9975824 16.4286403,12.4783945 15.73637,13.4685025 C15.0440997,14.4586104 13.8372431,14.3997432 13.8372431,14.3997432 L2.2344366,14.3997432 C2.2344366,14.3997432 0.66432955,14.3997432 0.133181582,13.1918726 C-0.397966386,11.9840019 0.831084525,10.2463072 0.831084525,10.2463072 L5.30778113,2.61093679 C5.30778113,2.61093679 6.63470826,0.0147149054 7.91403274,6.2500586e-05 Z" id="Triangle" fill="#D91A26"></path>
                <path d="M8.99260836,8.96436404 L6.72171053,8.96436404 L6.4,4.8 L9.31431889,4.8 L8.99260836,8.96436404 Z M6.4,11.6305663 C6.4,11.4223996 6.43627092,11.230006 6.50881385,11.0533798 C6.58135679,10.8767535 6.68386157,10.7237848 6.81633127,10.5944692 C6.94880097,10.4651535 7.10807763,10.3642257 7.29416602,10.2916828 C7.48025441,10.2191399 7.68999496,10.1828689 7.92339396,10.1828689 C8.15679296,10.1828689 8.36811051,10.2191399 8.55735294,10.2916828 C8.74659537,10.3642257 8.90744903,10.4651535 9.03991873,10.5944692 C9.17238843,10.7237848 9.27489321,10.8767535 9.34743615,11.0533798 C9.41997908,11.230006 9.45625,11.4223996 9.45625,11.6305663 C9.45625,11.838733 9.41997908,12.0295496 9.34743615,12.2030218 C9.27489321,12.376494 9.17238843,12.5278857 9.03991873,12.6572014 C8.90744903,12.786517 8.74659537,12.8874448 8.55735294,12.9599877 C8.36811051,13.0325307 8.15679296,13.0688016 7.92339396,13.0688016 C7.68999496,13.0688016 7.48025441,13.0325307 7.29416602,12.9599877 C7.10807763,12.8874448 6.94880097,12.786517 6.81633127,12.6572014 C6.68386157,12.5278857 6.58135679,12.376494 6.50881385,12.2030218 C6.43627092,12.0295496 6.4,11.838733 6.4,11.6305663 Z" id="!" fill="#FFFFFF"></path>
            </g>
        </g>
    </g>
</svg>
